<mxfile host="app.diagrams.net" modified="2023-03-16T12:01:20.131Z" agent="5.0 (Macintosh)" version="20.8.2" etag="uWLr2CNrrv4tKRKuuD3D" type="github">
  <diagram id="0pwdNDggOfPh_Ug4bjCk" name="Page-1">
    <mxGraphModel dx="2281" dy="723" grid="1" gridSize="10" guides="1" tooltips="1" connect="1" arrows="1" fold="1" page="1" pageScale="1" pageWidth="850" pageHeight="1100" math="0" shadow="0">
      <root>
        <mxCell id="0" />
        <mxCell id="1" parent="0" />
        <mxCell id="arC413j30fU3a1RBufOe-1" value="&lt;font style=&quot;font-size: 13px;&quot;&gt;&lt;font style=&quot;font-size: 14px;&quot;&gt;&lt;font style=&quot;font-size: 15px;&quot;&gt;&lt;font style=&quot;font-size: 16px;&quot;&gt;&lt;font style=&quot;font-size: 17px;&quot;&gt;Compounds&lt;/font&gt;&lt;/font&gt;&lt;/font&gt;&lt;/font&gt;&lt;/font&gt;" style="rounded=0;whiteSpace=wrap;html=1;fillColor=#e1d5e7;strokeColor=#9673a6;" vertex="1" parent="1">
          <mxGeometry x="80" y="100" width="120" height="60" as="geometry" />
        </mxCell>
        <mxCell id="arC413j30fU3a1RBufOe-2" value="&lt;font style=&quot;font-size: 13px;&quot;&gt;&lt;font style=&quot;font-size: 14px;&quot;&gt;&lt;font style=&quot;font-size: 15px;&quot;&gt;&lt;font style=&quot;font-size: 16px;&quot;&gt;Paths to Channels&lt;/font&gt;&lt;/font&gt;&lt;/font&gt;&lt;/font&gt;" style="rounded=0;whiteSpace=wrap;html=1;fillColor=#e1d5e7;strokeColor=#9673a6;" vertex="1" parent="1">
          <mxGeometry x="530" y="100" width="120" height="60" as="geometry" />
        </mxCell>
        <mxCell id="arC413j30fU3a1RBufOe-9" style="edgeStyle=orthogonalEdgeStyle;rounded=0;orthogonalLoop=1;jettySize=auto;html=1;exitX=0.5;exitY=1;exitDx=0;exitDy=0;entryX=0.5;entryY=0;entryDx=0;entryDy=0;" edge="1" parent="1" source="arC413j30fU3a1RBufOe-3" target="arC413j30fU3a1RBufOe-4">
          <mxGeometry relative="1" as="geometry" />
        </mxCell>
        <mxCell id="arC413j30fU3a1RBufOe-3" value="&lt;div&gt;Original Files&lt;/div&gt;&lt;div&gt;specs1k-v2-compounds.csv&lt;/div&gt;specs935-v1-compounds.csv" style="rounded=1;whiteSpace=wrap;html=1;fillColor=#dae8fc;strokeColor=#6c8ebf;" vertex="1" parent="1">
          <mxGeometry x="50" y="190" width="180" height="60" as="geometry" />
        </mxCell>
        <mxCell id="arC413j30fU3a1RBufOe-10" style="edgeStyle=orthogonalEdgeStyle;rounded=0;orthogonalLoop=1;jettySize=auto;html=1;entryX=0.5;entryY=0;entryDx=0;entryDy=0;" edge="1" parent="1" source="arC413j30fU3a1RBufOe-4" target="arC413j30fU3a1RBufOe-6">
          <mxGeometry relative="1" as="geometry" />
        </mxCell>
        <mxCell id="arC413j30fU3a1RBufOe-34" style="edgeStyle=orthogonalEdgeStyle;rounded=0;orthogonalLoop=1;jettySize=auto;html=1;exitX=0;exitY=0.5;exitDx=0;exitDy=0;fontSize=16;" edge="1" parent="1" source="arC413j30fU3a1RBufOe-4">
          <mxGeometry relative="1" as="geometry">
            <mxPoint x="-30" y="570" as="targetPoint" />
          </mxGeometry>
        </mxCell>
        <mxCell id="arC413j30fU3a1RBufOe-4" value="&lt;div&gt;compounds_v1v2.csv&lt;/div&gt;&lt;div&gt;compounds_v1v2_no_enants.csv&lt;br&gt;&lt;/div&gt;" style="rounded=1;whiteSpace=wrap;html=1;fillColor=#dae8fc;strokeColor=#6c8ebf;" vertex="1" parent="1">
          <mxGeometry x="50" y="310" width="180" height="60" as="geometry" />
        </mxCell>
        <mxCell id="arC413j30fU3a1RBufOe-35" style="edgeStyle=orthogonalEdgeStyle;rounded=0;orthogonalLoop=1;jettySize=auto;html=1;exitX=0.5;exitY=1;exitDx=0;exitDy=0;fontSize=16;" edge="1" parent="1" source="arC413j30fU3a1RBufOe-6">
          <mxGeometry relative="1" as="geometry">
            <mxPoint x="-30" y="570" as="targetPoint" />
          </mxGeometry>
        </mxCell>
        <mxCell id="arC413j30fU3a1RBufOe-6" value="clue_cmpds_in_cmpds_v1v2.csv" style="rounded=1;whiteSpace=wrap;html=1;fillColor=#dae8fc;strokeColor=#6c8ebf;" vertex="1" parent="1">
          <mxGeometry x="50" y="440" width="180" height="60" as="geometry" />
        </mxCell>
        <mxCell id="arC413j30fU3a1RBufOe-11" value="combine_specs_compounds.ipynb" style="whiteSpace=wrap;html=1;fillColor=#f8cecc;strokeColor=#b85450;" vertex="1" parent="1">
          <mxGeometry x="150" y="260" width="210" height="40" as="geometry" />
        </mxCell>
        <mxCell id="arC413j30fU3a1RBufOe-12" value="creates_compounds_found_in_clue_v1v2.ipynb" style="whiteSpace=wrap;html=1;fillColor=#f8cecc;strokeColor=#b85450;" vertex="1" parent="1">
          <mxGeometry x="150" y="380" width="300" height="40" as="geometry" />
        </mxCell>
        <mxCell id="arC413j30fU3a1RBufOe-13" value="&lt;font style=&quot;font-size: 13px;&quot;&gt;&lt;font style=&quot;font-size: 14px;&quot;&gt;&lt;font style=&quot;font-size: 15px;&quot;&gt;&lt;font style=&quot;font-size: 16px;&quot;&gt;Making DMSO Stats&lt;/font&gt;&lt;/font&gt;&lt;/font&gt;&lt;/font&gt;" style="rounded=0;whiteSpace=wrap;html=1;fillColor=#e1d5e7;strokeColor=#9673a6;" vertex="1" parent="1">
          <mxGeometry x="440" y="540" width="120" height="60" as="geometry" />
        </mxCell>
        <mxCell id="arC413j30fU3a1RBufOe-20" style="edgeStyle=orthogonalEdgeStyle;rounded=0;orthogonalLoop=1;jettySize=auto;html=1;exitX=0.5;exitY=1;exitDx=0;exitDy=0;entryX=0.5;entryY=0;entryDx=0;entryDy=0;" edge="1" parent="1" source="arC413j30fU3a1RBufOe-14" target="arC413j30fU3a1RBufOe-16">
          <mxGeometry relative="1" as="geometry" />
        </mxCell>
        <mxCell id="arC413j30fU3a1RBufOe-14" value="&lt;div&gt;Original Files&lt;/div&gt;&lt;div&gt;Database with all SPECS Compounds and their paths&lt;br&gt;&lt;/div&gt;" style="rounded=1;whiteSpace=wrap;html=1;fillColor=#dae8fc;strokeColor=#6c8ebf;" vertex="1" parent="1">
          <mxGeometry x="510" y="190" width="180" height="60" as="geometry" />
        </mxCell>
        <mxCell id="arC413j30fU3a1RBufOe-23" style="edgeStyle=orthogonalEdgeStyle;rounded=0;orthogonalLoop=1;jettySize=auto;html=1;exitX=0.5;exitY=1;exitDx=0;exitDy=0;entryX=0.5;entryY=0;entryDx=0;entryDy=0;" edge="1" parent="1" source="arC413j30fU3a1RBufOe-16" target="arC413j30fU3a1RBufOe-17">
          <mxGeometry relative="1" as="geometry" />
        </mxCell>
        <mxCell id="arC413j30fU3a1RBufOe-16" value="&lt;div&gt;specs1k_v2_paths_dmso_csv&lt;/div&gt;&lt;div&gt;specs_1k_v2_paths_treated.csv&lt;/div&gt;&lt;div&gt;specs935_v1_paths_dmso.csv&lt;/div&gt;&lt;div&gt;specs935_v1_paths_treated.csv&lt;br&gt;&lt;/div&gt;" style="rounded=1;whiteSpace=wrap;html=1;fillColor=#dae8fc;strokeColor=#6c8ebf;" vertex="1" parent="1">
          <mxGeometry x="505" y="305" width="190" height="70" as="geometry" />
        </mxCell>
        <mxCell id="arC413j30fU3a1RBufOe-26" style="edgeStyle=orthogonalEdgeStyle;rounded=0;orthogonalLoop=1;jettySize=auto;html=1;exitX=0.5;exitY=1;exitDx=0;exitDy=0;" edge="1" parent="1" source="arC413j30fU3a1RBufOe-17" target="arC413j30fU3a1RBufOe-25">
          <mxGeometry relative="1" as="geometry" />
        </mxCell>
        <mxCell id="arC413j30fU3a1RBufOe-17" value="&lt;div&gt;paths_channels_treated_v1v2.csv&lt;/div&gt;&lt;div&gt;paths_channels_dmso_v1v2.csv&lt;br&gt;&lt;/div&gt;" style="rounded=1;whiteSpace=wrap;html=1;fillColor=#dae8fc;strokeColor=#6c8ebf;" vertex="1" parent="1">
          <mxGeometry x="505" y="440" width="190" height="60" as="geometry" />
        </mxCell>
        <mxCell id="arC413j30fU3a1RBufOe-18" value="&lt;div&gt;Erik_make_dmso_stats.py&lt;/div&gt;&lt;div&gt;Erik_make_dmso_stats.ipynb&lt;br&gt;&lt;/div&gt;" style="whiteSpace=wrap;html=1;fillColor=#f8cecc;strokeColor=#b85450;" vertex="1" parent="1">
          <mxGeometry x="620" y="540" width="210" height="40" as="geometry" />
        </mxCell>
        <mxCell id="arC413j30fU3a1RBufOe-24" value="" style="edgeStyle=orthogonalEdgeStyle;rounded=0;orthogonalLoop=1;jettySize=auto;html=1;" edge="1" parent="1" source="arC413j30fU3a1RBufOe-19" target="arC413j30fU3a1RBufOe-18">
          <mxGeometry relative="1" as="geometry" />
        </mxCell>
        <mxCell id="arC413j30fU3a1RBufOe-19" value="stats_recorder.py" style="whiteSpace=wrap;html=1;fillColor=#ffe6cc;strokeColor=#d79b00;" vertex="1" parent="1">
          <mxGeometry x="880" y="540" width="210" height="40" as="geometry" />
        </mxCell>
        <mxCell id="arC413j30fU3a1RBufOe-21" value="&lt;div&gt;Erik_SQL_Paths.ipynb&lt;/div&gt;&lt;div&gt;paths_to_channels.py (function version)&lt;br&gt;&lt;/div&gt;" style="whiteSpace=wrap;html=1;fillColor=#f8cecc;strokeColor=#b85450;" vertex="1" parent="1">
          <mxGeometry x="650" y="260" width="220" height="40" as="geometry" />
        </mxCell>
        <mxCell id="arC413j30fU3a1RBufOe-22" value="combining_paths_to_channels.ipynb" style="whiteSpace=wrap;html=1;fillColor=#f8cecc;strokeColor=#b85450;" vertex="1" parent="1">
          <mxGeometry x="650" y="390" width="210" height="40" as="geometry" />
        </mxCell>
        <mxCell id="arC413j30fU3a1RBufOe-25" value="&lt;div&gt;dmso_stats_v1v2.csv&lt;/div&gt;" style="rounded=1;whiteSpace=wrap;html=1;fillColor=#dae8fc;strokeColor=#6c8ebf;" vertex="1" parent="1">
          <mxGeometry x="505" y="670" width="190" height="60" as="geometry" />
        </mxCell>
        <mxCell id="arC413j30fU3a1RBufOe-27" value="&lt;div style=&quot;font-size: 16px;&quot;&gt;&lt;font style=&quot;font-size: 16px;&quot;&gt;Splitting Compounds Into Train, Test, Val Using Stratified K-Fold&lt;br&gt;&lt;/font&gt;&lt;/div&gt;" style="rounded=0;whiteSpace=wrap;html=1;fillColor=#e1d5e7;strokeColor=#9673a6;" vertex="1" parent="1">
          <mxGeometry x="130" y="550" width="200" height="80" as="geometry" />
        </mxCell>
        <mxCell id="arC413j30fU3a1RBufOe-28" value="&lt;div&gt;&lt;font style=&quot;font-size: 13px;&quot;&gt;&lt;font style=&quot;font-size: 14px;&quot;&gt;&lt;font style=&quot;font-size: 15px;&quot;&gt;&lt;font style=&quot;font-size: 16px;&quot;&gt;Tian&lt;/font&gt;&lt;/font&gt;&lt;/font&gt;&lt;/font&gt;&lt;/div&gt;&lt;div&gt;&lt;div&gt;train, test, val&lt;br&gt;&lt;/div&gt;fold0, fold1, fold2, fold3, fold4&lt;/div&gt;" style="rounded=1;whiteSpace=wrap;html=1;fillColor=#dae8fc;strokeColor=#6c8ebf;" vertex="1" parent="1">
          <mxGeometry x="-250" y="720" width="180" height="110" as="geometry" />
        </mxCell>
        <mxCell id="arC413j30fU3a1RBufOe-29" value="&lt;div&gt;&lt;font style=&quot;font-size: 13px;&quot;&gt;&lt;font style=&quot;font-size: 14px;&quot;&gt;&lt;font style=&quot;font-size: 15px;&quot;&gt;&lt;font style=&quot;font-size: 16px;&quot;&gt;Erik&lt;/font&gt;&lt;/font&gt;&lt;/font&gt;&lt;/font&gt;&lt;/div&gt;&lt;div&gt;train, test, val&lt;br&gt;&lt;/div&gt;fold0, fold1, fold2, fold3, fold4" style="rounded=1;whiteSpace=wrap;html=1;fillColor=#dae8fc;strokeColor=#6c8ebf;" vertex="1" parent="1">
          <mxGeometry x="-30" y="720" width="180" height="110" as="geometry" />
        </mxCell>
        <mxCell id="arC413j30fU3a1RBufOe-30" value="&lt;div&gt;&lt;font style=&quot;font-size: 13px;&quot;&gt;&lt;font style=&quot;font-size: 14px;&quot;&gt;&lt;font style=&quot;font-size: 15px;&quot;&gt;&lt;font style=&quot;font-size: 16px;&quot;&gt;Cyc, Adr&lt;/font&gt;&lt;/font&gt;&lt;/font&gt;&lt;/font&gt;&lt;/div&gt;&lt;div&gt;train, test, val&lt;br&gt;&lt;/div&gt;&lt;div&gt;fold0, fold1, fold2, fold3, fold4&lt;br&gt;&lt;/div&gt;" style="rounded=1;whiteSpace=wrap;html=1;fillColor=#dae8fc;strokeColor=#6c8ebf;" vertex="1" parent="1">
          <mxGeometry x="200" y="720" width="170" height="110" as="geometry" />
        </mxCell>
        <mxCell id="arC413j30fU3a1RBufOe-37" style="edgeStyle=orthogonalEdgeStyle;rounded=0;orthogonalLoop=1;jettySize=auto;html=1;entryX=0.5;entryY=0;entryDx=0;entryDy=0;fontSize=12;" edge="1" parent="1" source="arC413j30fU3a1RBufOe-36" target="arC413j30fU3a1RBufOe-28">
          <mxGeometry relative="1" as="geometry" />
        </mxCell>
        <mxCell id="arC413j30fU3a1RBufOe-38" style="edgeStyle=orthogonalEdgeStyle;rounded=0;orthogonalLoop=1;jettySize=auto;html=1;exitX=0.5;exitY=1;exitDx=0;exitDy=0;entryX=0.5;entryY=0;entryDx=0;entryDy=0;fontSize=12;" edge="1" parent="1" source="arC413j30fU3a1RBufOe-36" target="arC413j30fU3a1RBufOe-29">
          <mxGeometry relative="1" as="geometry" />
        </mxCell>
        <mxCell id="arC413j30fU3a1RBufOe-39" style="edgeStyle=orthogonalEdgeStyle;rounded=0;orthogonalLoop=1;jettySize=auto;html=1;exitX=0.5;exitY=1;exitDx=0;exitDy=0;fontSize=12;" edge="1" parent="1" source="arC413j30fU3a1RBufOe-36" target="arC413j30fU3a1RBufOe-30">
          <mxGeometry relative="1" as="geometry" />
        </mxCell>
        <mxCell id="arC413j30fU3a1RBufOe-36" value="&lt;div style=&quot;font-size: 12px;&quot;&gt;&lt;font style=&quot;font-size: 12px;&quot;&gt;five_way_split.ipynb&lt;/font&gt;&lt;/div&gt;&lt;font style=&quot;font-size: 12px;&quot;&gt;&lt;font style=&quot;font-size: 12px;&quot;&gt;five_way_split.py&lt;/font&gt;&lt;/font&gt;" style="rounded=0;whiteSpace=wrap;html=1;fontSize=12;fillColor=#f8cecc;strokeColor=#b85450;" vertex="1" parent="1">
          <mxGeometry x="-150" y="570" width="250" height="60" as="geometry" />
        </mxCell>
      </root>
    </mxGraphModel>
  </diagram>
</mxfile>
